<svg width="785" height="332" viewBox="0 0 785 332" fill="none" xmlns="http://www.w3.org/2000/svg">
<path d="M309.773 50.1239C373.686 45.6989 429.123 93.8469 433.688 157.749C438.253 221.654 390.228 277.193 326.333 281.898C262.24 286.618 206.49 238.414 201.91 174.309C197.33 110.207 245.661 54.5625 309.773 50.1239ZM321.527 220.534C382.502 215.744 378.784 109.409 315.479 111.68C303.121 112.531 291.788 116.345 283.631 126.131C265.45 147.945 265.751 191.934 288.26 210.904C297.932 219.059 309.402 221.179 321.527 220.534Z" fill="#E6E6E3"/>
<path d="M584.102 58.0714L662.297 58.0234C656.587 72.4284 650.797 86.8009 644.927 101.139C630.657 136.008 616.757 171.03 603.232 206.19C594.942 228.285 587.232 251.97 578.432 273.64L497.667 273.55C494.472 265.965 491.212 256.55 488.267 248.75L469.487 198.925L415.977 58.0639L494.332 58.0889L539.417 213.435L584.102 58.0714Z" fill="#E6E6E3"/>
<path d="M130.749 92.3152C145.092 58.9167 169.03 46.6957 204.426 49.3512L204.545 120.032C170.124 109.987 143.247 116.526 134.927 155.735C131.642 171.21 132.985 188.84 132.983 204.765L132.933 273.475C109.289 273.61 85.6445 273.61 62 273.485L62.084 58.1122L131.926 58.1042C131.336 67.1162 130.454 77.2657 130.347 86.2097C130.536 88.2832 130.51 90.2552 130.749 92.3152Z" fill="#E6E6E3"/>
<path d="M130.75 92.3145C130.676 92.7775 130.632 93.3695 130.188 93.625C129.426 93.1205 130.145 87.379 130.349 86.209C130.537 88.2825 130.511 90.2545 130.75 92.3145Z" fill="#1D1E27"/>
<path d="M673.671 187.63C699.196 185.77 721.381 204.99 723.176 230.52C724.976 256.045 705.706 278.185 680.171 279.92C654.726 281.65 632.681 262.46 630.891 237.02C629.101 211.575 648.236 189.485 673.671 187.63Z" fill="#3658F1"/>
</svg>
